<?xml version="1.0" encoding="UTF-8" standalone="no"?>
<!-- Created with Inkscape (http://www.inkscape.org/) -->

<svg
   width="20"
   height="20"
   viewBox="0 0 5.2916664 5.2916664"
   version="1.1"
   id="svg7124"
   inkscape:version="1.2.1 (9c6d41e, 2022-07-14)"
   sodipodi:docname="icon-close.svg"
   xmlns:inkscape="http://www.inkscape.org/namespaces/inkscape"
   xmlns:sodipodi="http://sodipodi.sourceforge.net/DTD/sodipodi-0.dtd"
   xmlns="http://www.w3.org/2000/svg"
   xmlns:svg="http://www.w3.org/2000/svg">
  <sodipodi:namedview
     id="namedview7126"
     pagecolor="#ffffff"
     bordercolor="#000000"
     borderopacity="0.25"
     inkscape:showpageshadow="2"
     inkscape:pageopacity="0.0"
     inkscape:pagecheckerboard="0"
     inkscape:deskcolor="#d1d1d1"
     inkscape:document-units="mm"
     showgrid="true"
     inkscape:zoom="15.88"
     inkscape:cx="19.489924"
     inkscape:cy="25"
     inkscape:window-width="1390"
     inkscape:window-height="972"
     inkscape:window-x="0"
     inkscape:window-y="25"
     inkscape:window-maximized="0"
     inkscape:current-layer="layer1">
    <inkscape:grid
       type="xygrid"
       id="grid7128"
       originx="0"
       originy="0" />
  </sodipodi:namedview>
  <defs
     id="defs7121" />
  <g
     inkscape:label="Layer 1"
     inkscape:groupmode="layer"
     id="layer1">
    <path
       id="rect7184"
       style="fill:#ff0000;stroke-width:0.138187;stroke-linecap:round"
       d="m 3.8672501,3.8672503 c -0.135333,0.1353327 -0.3532339,0.1353327 -0.4885668,2e-7 L 1.4244164,1.9129832 c -0.135333,-0.135333 -0.135333,-0.3532337 0,-0.4885667 0.135333,-0.135333 0.3532338,-0.135333 0.4885668,0 l 1.9542671,1.9542673 c 0.1353327,0.1353326 0.1353325,0.3532335 -2e-7,0.4885665 z m 2e-7,-2.4428337 c 0.135333,0.135333 0.135333,0.3532338 0,0.4885667 L 1.9129832,3.8672505 c -0.1353329,0.1353325 -0.3532338,0.1353325 -0.4885667,0 -0.135333,-0.1353332 -0.135333,-0.3532341 0,-0.4885667 l 1.954267,-1.9542672 c 0.1353327,-0.135333 0.3532338,-0.135333 0.4885668,0 z" />
  </g>
</svg>
